#!OML:ASF H:\Dans Jumps\Project 1\Capture day 1\Session 1\subject.ASF
:FULLY-SPECIFIED
:DEGREES
89
root 0.408219 17.5462 -14.1364 7.63503 -1.61235 -1.46071
lowerback 2.93102 -0.427189 0.139844
upperback 5.58823 -0.628104 1.75562
thorax 4.13571 -0.350728 1.72887
lowerneck -11.9678 0.923927 -1.25698
upperneck 34.7174 1.9713 -0.86335
head 13.7585 0.5676 0.169458
rclavicle 5.46658e-015 -8.15017e-015
rhumerus -25.3343 -11.5774 -81.1746
rradius 28.0685
rwrist 25.9263
rhand -18.5767 -25.0666
rfingers 7.12502
rthumb 7.71373 -54.9059
lclavicle 5.46658e-015 -8.15017e-015
lhumerus -23.3656 -7.27607 90.328
lradius 24.784
lwrist 13.8678
lhand -26.8589 -4.10423
lfingers 7.12502
lthumb -0.283817 25.8753
rfemur -17.8183 -1.85225 19.3588
rtibia 25.5856
rfoot -13.9657 -3.21415
rtoes 8.18267
lfemur -16.5135 6.78853 -19.2467
ltibia 23.3647
lfoot -11.9543 5.73768
ltoes 2.89088
90
root 0.410743 17.5375 -14.1572 7.71068 -1.58697 -1.49695
lowerback 3.12364 -0.427181 0.183088
upperback 5.61373 -0.626888 1.78473
thorax 4.05362 -0.348936 1.73607
lowerneck -12.0159 0.9194 -1.24572
upperneck 34.5739 1.97344 -0.902356
head 13.7059 0.566549 0.152394
rclavicle -3.67752e-015 -1.88845e-014
rhumerus -25.2452 -11.5037 -81.1647
rradius 28.1235
rwrist 25.8997
rhand -18.6278 -25.0017
rfingers 7.12502
rthumb 7.66437 -54.8428
lclavicle -3.67752e-015 -1.88845e-014
lhumerus -23.3049 -7.33356 90.3245
lradius 24.8694
lwrist 13.9618
lhand -26.8736 -4.20836
lfingers 7.12502
lthumb -0.298013 25.7712
rfemur -18.1438 -1.83664 19.3967
rtibia 25.904
rfoot -14.0298 -3.26231
rtoes 8.10868
lfemur -16.9207 6.79665 -19.2356
ltibia 23.8182
lfoot -12.0542 5.75094
ltoes 2.85217
91
root 0.413389 17.5278 -14.1793 7.79301 -1.56713 -1.52711
lowerback 3.32637 -0.424572 0.217993
upperback 5.63925 -0.621902 1.81414
thorax 3.96594 -0.345612 1.74833
lowerneck -12.0655 0.913855 -1.23783
upperneck 34.4264 1.97487 -0.9413
head 13.6521 0.564816 0.135914
rclavicle -8.05078e-015 5.56597e-015
rhumerus -25.1544 -11.4397 -81.1449
rradius 28.1743
rwrist 25.8848
rhand -18.6755 -24.9198
rfingers 7.12502
rthumb 7.61834 -54.7626
lclavicle -8.05078e-015 5.56597e-015
lhumerus -23.2444 -7.39528 90.3218
lradius 24.9539
lwrist 14.0638
lhand -26.8802 -4.2947
lfingers 7.12502
lthumb -0.304336 25.6848
rfemur -18.4967 -1.82106 19.4274
rtibia 26.2514
rfoot -14.1063 -3.31044
rtoes 8.01653
lfemur -17.3538 6.81713 -19.2351
ltibia 24.2987
lfoot -12.1643 5.76203
ltoes 2.80344
92
root 0.416198 17.517 -14.2026 7.88296 -1.55221 -1.55347
lowerback 3.53961 -0.420824 0.246754
upperback 5.6642 -0.615123 1.84467
thorax 3.8719 -0.341663 1.76525
lowerneck -12.1147 0.908567 -1.23365
upperneck 34.2704 1.97727 -0.979868
head 13.5947 0.56318 0.120425
rclavicle 1.19271e-015 1.5704e-014
rhumerus -25.0669 -11.372 -81.1179
rradius 28.2299
rwrist 25.8596
rhand -18.7062 -24.848
rfingers 7.12502
rthumb 7.58869 -54.6919
lclavicle 1.19271e-015 1.5704e-014
lhumerus -23.1852 -7.45176 90.3166
lradius 25.0369
lwrist 14.161
lhand -26.8825 -4.37718
lfingers 7.12502
lthumb -0.306559 25.6023
rfemur -18.8803 -1.80546 19.4536
rtibia 26.6302
rfoot -14.1955 -3.35764
rtoes 7.92061
lfemur -17.8153 6.84872 -19.2425
ltibia 24.8078
lfoot -12.2847 5.7716
ltoes 2.74674
93
root 0.419113 17.5049 -14.227 7.97943 -1.53997 -1.57792
lowerback 3.76218 -0.415265 0.271648
upperback 5.69179 -0.605735 1.8765
thorax 3.77546 -0.336613 1.78574
lowerneck -12.154 0.901669 -1.24299
upperneck 34.0897 1.97662 -1.00824
head 13.5241 0.560234 0.110882
rclavicle -3.67752e-015 -2.94201e-014
rhumerus -24.978 -11.307 -81.082
rradius 28.2865
rwrist 25.8234
rhand -18.7299 -24.777
rfingers 7.12502
rthumb 7.56584 -54.6217
lclavicle -3.67752e-015 -2.94201e-014
lhumerus -23.1247 -7.49966 90.3061
lradius 25.1238
lwrist 14.2476
lhand -26.8714 -4.44469
lfingers 7.12502
lthumb -0.295857 25.5349
rfemur -19.2952 -1.7937 19.4781
rtibia 27.0433
rfoot -14.2954 -3.40326
rtoes 7.80797
lfemur -18.3036 6.89045 -19.2551
ltibia 25.3449
lfoot -12.4166 5.7777
ltoes 2.67709
94
root 0.422035 17.4914 -14.2526 8.08126 -1.52545 -1.60062
lowerback 3.99537 -0.409739 0.293785
upperback 5.72229 -0.596166 1.9093
thorax 3.67626 -0.331614 1.80881
lowerneck -12.196 0.894735 -1.25275
upperneck 33.8941 1.97589 -1.03713
head 13.4479 0.557336 0.101256
rclavicle 1.6201e-014 1.07344e-014
rhumerus -24.8897 -11.2386 -81.0388
rradius 28.3477
rwrist 25.76
rhand -18.7437 -24.719
rfingers 7.12502
rthumb 7.55259 -54.5641
lclavicle 1.6201e-014 1.07344e-014
lhumerus -23.0623 -7.54333 90.2889
lradius 25.2122
lwrist 14.3288
lhand -26.8588 -4.52171
lfingers 7.12502
lthumb -0.283759 25.4578
rfemur -19.7405 -1.7883 19.5021
rtibia 27.4927
rfoot -14.4041 -3.4501
rtoes 7.66957
lfemur -18.8186 6.93829 -19.2717
ltibia 25.9104
lfoot -12.5595 5.77965
ltoes 2.59258
95
root 0.42499 17.4767 -14.279 8.1852 -1.51147 -1.61718
lowerback 4.23762 -0.403788 0.308948
upperback 5.75811 -0.585882 1.94023
thorax 3.57771 -0.326518 1.83388
lowerneck -12.2315 0.884595 -1.27006
upperneck 33.6777 1.96898 -1.05774
head 13.3615 0.552202 0.0953036
rclavicle -3.57812e-015 -1.39149e-014
rhumerus -24.799 -11.1774 -80.9884
rradius 28.4049
rwrist 25.697
rhand -18.7568 -24.6613
rfingers 7.12502
rthumb 7.53994 -54.5069
lclavicle -3.57812e-015 -1.39149e-014
lhumerus -23.0026 -7.59311 90.2649
lradius 25.2982
lwrist 14.4062
lhand -26.8672 -4.6554
lfingers 7.12502
lthumb -0.291826 25.3241
rfemur -20.213 -1.79266 19.5211
rtibia 27.9805
rfoot -14.5218 -3.49326
rtoes 7.50784
lfemur -19.3533 6.9895 -19.2965
ltibia 26.5029
lfoot -12.713 5.78088
ltoes 2.49734
